<?xml version="1.0" standalone="no"?>
<!DOCTYPE svg PUBLIC "-//W3C//DTD SVG 20010904//EN"
 "http://www.w3.org/TR/2001/REC-SVG-20010904/DTD/svg10.dtd">
<svg version="1.0" xmlns="http://www.w3.org/2000/svg"
 width="512.000000pt" height="512.000000pt" viewBox="0 0 512.000000 512.000000"
 preserveAspectRatio="xMidYMid meet">
<metadata>
Created by potrace 1.11, written by Peter Selinger 2001-2013
</metadata>
<g transform="translate(0.000000,512.000000) scale(0.100000,-0.100000)"
fill="#000000" stroke="none">
<path d="M3730 4020 c-202 -36 -429 -133 -603 -257 -108 -77 -267 -237 -346
-348 -115 -164 -207 -379 -248 -581 -25 -125 -25 -443 0 -568 41 -202 133
-417 248 -581 79 -111 238 -271 346 -348 183 -130 425 -230 638 -262 161 -25
430 -16 577 18 266 63 510 198 706 390 40 40 72 80 72 91 0 11 -30 66 -66 122
l-65 103 -58 -67 c-119 -136 -226 -221 -372 -297 -185 -96 -349 -135 -561
-135 -327 0 -621 122 -853 355 -185 184 -310 426 -356 685 -17 96 -17 324 0
420 46 259 171 501 356 685 232 233 526 355 853 355 71 0 167 -7 213 -15 215
-37 437 -145 596 -289 l61 -56 71 107 71 108 -37 33 c-166 145 -403 264 -630
319 -151 35 -455 42 -613 13z"/>
<path d="M12 3982 c2 -5 34 -56 72 -115 l68 -107 458 0 c564 0 636 -8 795 -88
87 -43 191 -145 228 -222 101 -209 66 -467 -84 -621 -65 -67 -143 -114 -251
-152 l-93 -32 -452 -3 -453 -3 0 -114 0 -115 357 -2 357 -3 420 -647 421 -648
152 0 c84 0 153 2 153 5 0 3 -192 300 -426 661 -234 360 -424 657 -422 658 1
2 35 13 73 24 227 68 409 212 499 396 49 100 67 174 73 306 6 148 -11 233 -73
360 -40 79 -62 109 -133 180 -164 162 -371 252 -650 280 -121 12 -1094 14
-1089 2z"/>
</g>
</svg>
