<svg xmlns="http://www.w3.org/2000/svg" viewBox="0 0 25 25"><style>.st0{fill:url(#XMLID_4_)}.st1{fill:url(#XMLID_5_)}.st2{fill:url(#SVGID_1_)}</style><radialGradient id="XMLID_4_" cx="13.869" cy=".888" r="10.826" gradientTransform="matrix(1.0709 0 0 -1.0709 -4.769 19.172)" gradientUnits="userSpaceOnUse"><stop offset="0" stop-color="#ffd776"/><stop offset=".246" stop-color="#f3a554"/><stop offset=".379" stop-color="#f15c3c"/><stop offset=".607" stop-color="#d94867"/><stop offset=".835" stop-color="#c32f87"/><stop offset=".958" stop-color="#7d63a7"/><stop offset="1" stop-color="#5c6cb3"/></radialGradient><path id="XMLID_3_" class="st0" d="M12.5 6.7c-3.2 0-5.8 2.6-5.8 5.7s2.6 5.8 5.8 5.8 5.7-2.6 5.7-5.8-2.5-5.7-5.7-5.7zm0 9.8c-2.2 0-4-1.8-4-4s1.8-4 4-4 4 1.8 4 4-1.8 4-4 4z"/><radialGradient id="XMLID_5_" cx="-909.082" cy="2720.735" r="31.333" gradientTransform="matrix(.08065 0 0 -.08065 91.713 226.71)" gradientUnits="userSpaceOnUse"><stop offset="0" stop-color="#5f6db3"/><stop offset="1" stop-color="#5c6cb3"/></radialGradient><circle id="XMLID_2_" class="st1" cx="18.9" cy="6.1" r="1.2"/><linearGradient id="SVGID_1_" gradientUnits="userSpaceOnUse" x1="5.06" y1="25.387" x2="19.94" y2="-.387"><stop offset="0" stop-color="#ffd776"/><stop offset=".246" stop-color="#f3a554"/><stop offset=".379" stop-color="#f15c3c"/><stop offset=".539" stop-color="#d94867"/><stop offset=".7" stop-color="#c32f87"/><stop offset=".912" stop-color="#7d63a7"/><stop offset=".985" stop-color="#5c6cb3"/></linearGradient><path class="st2" d="M19 0H6C2.7 0 0 2.7 0 6v13c0 3.3 2.7 6 6 6h13c3.3 0 6-2.7 6-6V6c0-3.3-2.7-6-6-6zm4 19c0 2.2-1.8 4-4 4H6c-2.2 0-4-1.8-4-4V6c0-2.2 1.8-4 4-4h13c2.2 0 4 1.8 4 4v13z"/></svg>